<?xml version="1.0" standalone="no"?>
<!DOCTYPE svg PUBLIC "-//W3C//DTD SVG 20010904//EN"
 "http://www.w3.org/TR/2001/REC-SVG-20010904/DTD/svg10.dtd">
<svg version="1.0" xmlns="http://www.w3.org/2000/svg"
 width="439.000000pt" height="312.000000pt" viewBox="0 0 439.000000 312.000000"
 preserveAspectRatio="xMidYMid meet">

<g transform="translate(0.000000,312.000000) scale(0.100000,-0.100000)"
fill="#000000" stroke="none">
<path d="M1600 3019 c-446 -25 -867 -83 -1143 -156 -76 -20 -101 -31 -107 -47
-5 -12 -14 -93 -20 -181 -13 -192 -22 -614 -12 -565 l7 35 150 22 c1137 165
2355 159 3487 -18 l138 -22 0 -266 c0 -399 -18 -730 -62 -1155 l-21 -208 -33
-14 c-47 -20 -280 -80 -419 -108 -860 -175 -2055 -139 -3051 90 l-112 25 -6
38 c-8 50 -44 410 -55 546 -4 61 -9 87 -10 59 -1 -52 31 -413 50 -565 11 -81
14 -90 49 -124 42 -41 66 -49 310 -99 504 -104 971 -154 1540 -163 697 -11
1262 55 1745 204 71 22 65 3 94 298 63 648 73 1345 27 1931 -13 171 -14 172
-46 213 -38 47 -40 47 -255 90 -281 56 -593 96 -969 127 -227 18 -1042 27
-1276 13z m854 -8 c17 -3 -118 -5 -298 -4 -180 1 -330 4 -334 7 -7 8 595 5
632 -3z m-779 -11 c-71 -4 -134 -8 -140 -10 -5 -1 -32 -1 -60 1 -43 2 -39 4
30 9 44 3 130 6 190 7 l110 0 -130 -7z m1075 0 l95 -7 -75 0 c-41 0 -122 3
-180 7 l-105 7 85 0 c47 1 128 -3 180 -7z m-903 -6 c-3 -3 -12 -4 -19 -1 -8 3
-5 6 6 6 11 1 17 -2 13 -5z m476 -1 c-7 -2 -19 -2 -25 0 -7 3 -2 5 12 5 14 0
19 -2 13 -5z m-904 -8 c-3 -2 -30 -6 -61 -7 -31 -1 -55 -5 -53 -8 2 -3 -22 -3
-53 0 l-57 4 55 7 c71 8 175 10 169 4z m544 -2 c-7 -2 -19 -2 -25 0 -7 3 -2 5
12 5 14 0 19 -2 13 -5z m634 1 c-3 -3 -12 -4 -19 -1 -8 3 -5 6 6 6 11 1 17 -2
13 -5z m280 0 c-3 -3 -12 -4 -19 -1 -8 3 -5 6 6 6 11 1 17 -2 13 -5z m226 -10
c97 -10 175 -19 172 -22 -6 -6 -376 26 -384 34 -7 7 29 5 212 -12z m-1963 -14
c-30 -5 -71 -8 -90 -8 -31 1 -30 2 10 8 25 4 65 7 90 7 44 0 44 0 -10 -7z
m1566 -10 c127 -5 325 -19 440 -31 115 -12 230 -22 256 -23 25 0 44 -3 41 -6
-2 -2 78 -19 179 -36 101 -18 235 -43 298 -57 63 -14 119 -22 123 -18 11 11
-3 41 -20 41 -8 0 -12 -4 -8 -9 3 -5 0 -13 -6 -17 -7 -4 -9 -3 -6 3 8 13 -19
37 -32 29 -5 -4 -12 -2 -16 3 -3 5 -13 10 -23 10 -31 1 -61 7 -68 14 -4 4 -1
7 7 7 18 -1 179 -37 184 -42 6 -7 26 -307 32 -488 5 -167 4 -193 -8 -184 -20
16 -154 37 -187 30 -21 -5 -24 -4 -12 4 12 9 10 10 -10 9 -14 -2 -34 0 -45 4
-55 18 -581 74 -930 99 -238 17 -1147 17 -1390 0 -400 -28 -1112 -113 -1100
-131 2 -3 -13 -6 -33 -6 -40 0 -55 -21 -20 -28 19 -4 18 -4 -6 -6 l-29 -1 7
168 c9 226 18 370 24 354 5 -15 32 -16 32 -1 0 5 4 8 10 4 13 -8 190 46 184
57 -3 4 2 5 10 2 8 -3 32 6 53 20 21 14 47 26 58 25 14 0 11 -4 -11 -12 -83
-31 -134 -105 -134 -196 0 -62 25 -116 74 -159 40 -35 85 -47 157 -40 27 3 52
1 55 -3 3 -5 -1 -6 -9 -3 -8 3 -17 1 -20 -3 -3 -5 -28 -8 -54 -7 -34 2 -42 1
-28 -6 28 -12 85 -12 85 1 0 5 4 8 9 5 18 -12 66 13 111 58 20 20 17 41 -4 33
-7 -3 -1 16 12 42 31 61 26 136 -15 195 -32 47 -119 96 -169 96 -18 0 -35 4
-38 9 -3 4 11 7 32 5 20 -1 43 3 52 9 13 11 13 10 0 -7 -14 -17 -13 -18 5 -13
52 15 164 40 313 70 90 18 160 36 157 39 -4 3 -1 9 6 14 8 4 10 3 5 -4 -9 -16
9 -15 119 3 50 9 108 18 130 20 217 26 326 36 475 45 333 20 417 21 696 10z
m-1714 -8 c-7 -5 -36 -9 -65 -9 -47 -1 -49 0 -17 7 49 10 98 12 82 2z m2387 1
c44 -5 50 -8 32 -15 -12 -4 -20 -12 -17 -17 4 -5 -4 -7 -16 -3 -21 5 -21 6 -2
12 15 6 10 9 -21 14 -64 11 -71 14 -50 15 11 0 44 -2 74 -6z m-2509 -17 c0 -9
-40 -13 -46 -5 -3 5 6 9 20 9 14 0 26 -2 26 -4z m2445 -6 c3 -6 -1 -7 -9 -4
-18 7 -21 14 -7 14 6 0 13 -4 16 -10z m185 6 c0 -2 -11 -6 -25 -8 -14 -3 -25
-1 -25 3 0 5 11 9 25 9 14 0 25 -2 25 -4z m-2700 -10 c0 -2 -9 -6 -20 -9 -11
-3 -20 -1 -20 4 0 5 9 9 20 9 11 0 20 -2 20 -4z m2825 -10 c39 -8 59 -15 45
-16 -14 -1 -29 -1 -35 0 -104 22 -126 28 -105 29 14 0 57 -6 95 -13z m-2889
-9 c-17 -12 -28 -13 -76 -7 -18 3 36 17 69 19 23 1 24 0 7 -12z m-126 -18
c-19 -6 -42 -13 -50 -16 -27 -11 -50 -13 -50 -5 0 5 21 13 48 19 60 13 98 14
52 2z m3185 -3 c33 -8 51 -14 40 -15 -11 0 -47 6 -80 13 -33 8 -51 14 -40 15
11 0 47 -6 80 -13z m-3340 -36 c-27 -11 -55 -20 -62 -20 -7 0 -17 -8 -23 -17
-10 -17 -11 -16 -8 2 2 14 19 24 58 36 75 23 96 22 35 -1z m100 -18 c-3 -3
-11 0 -18 7 -9 10 -8 11 6 5 10 -3 15 -9 12 -12z m-85 4 c0 -2 -7 -7 -16 -10
-8 -3 -12 -2 -9 4 6 10 25 14 25 6z m-97 -99 c9 5 9 3 1 -8 -7 -8 -14 -23 -17
-34 -2 -11 -4 7 -4 40 0 33 2 45 4 27 3 -22 8 -30 16 -25z m453 -8 c36 -11 88
-63 103 -102 6 -16 11 -52 11 -81 0 -164 -196 -245 -319 -132 -62 58 -78 142
-42 222 42 92 135 127 247 93z m48 -354 c-28 -22 -40 -18 -13 4 13 11 26 17
28 15 3 -2 -4 -11 -15 -19z m1123 -81 c-3 -3 -12 -4 -19 -1 -8 3 -5 6 6 6 11
1 17 -2 13 -5z m336 -1 c-7 -2 -19 -2 -25 0 -7 3 -2 5 12 5 14 0 19 -2 13 -5z
m398 -12 c-11 -7 -7 -10 15 -13 16 -2 -244 -3 -578 -3 -334 0 -597 3 -584 6
13 4 272 7 575 7 304 0 555 3 558 6 4 3 11 6 17 6 6 0 5 -4 -3 -9z m-1344 -7
c-3 -3 -12 -4 -19 -1 -8 3 -5 6 6 6 11 1 17 -2 13 -5z m1566 -20 c71 -3 126
-8 124 -11 -9 -8 -297 10 -297 19 0 4 10 6 23 4 12 -3 80 -8 150 -12z m-1424
2 c-2 -2 -67 -6 -144 -8 -77 -3 -113 -2 -80 2 67 7 231 12 224 6z m-539 -22
l-25 -15 27 5 c14 3 75 8 135 10 l108 5 -95 -10 c-52 -5 -154 -16 -227 -24
-73 -8 -142 -14 -155 -14 -27 2 64 17 140 23 29 3 62 12 74 21 12 8 27 15 33
15 5 -1 -1 -8 -15 -16z m2188 -1 c-15 -2 -42 -2 -60 0 -18 2 -6 4 27 4 33 0
48 -2 33 -4z m150 -8 c78 -5 306 -35 312 -42 3 -3 -11 -3 -30 0 -20 3 -118 13
-218 23 -100 10 -182 22 -182 27 0 5 14 6 30 2 17 -4 57 -8 88 -10z m259 -1
c-3 -3 -12 -4 -19 -1 -8 3 -5 6 6 6 11 1 17 -2 13 -5z m-2869 -41 c-10 -2 -26
-2 -35 0 -10 3 -2 5 17 5 19 0 27 -2 18 -5z m-80 -10 c-10 -2 -28 -2 -40 0
-13 2 -5 4 17 4 22 1 32 -1 23 -4z m3137 -3 c34 -5 55 -4 64 4 11 8 13 8 8 -1
-9 -14 64 -28 142 -26 36 0 49 -2 40 -9 -10 -7 -4 -8 19 -5 19 2 37 -2 43 -10
8 -9 8 -13 0 -13 -6 0 -11 4 -11 9 0 5 -8 7 -17 5 -10 -2 -103 9 -208 25 -104
16 -176 29 -160 29 17 1 53 -3 80 -8z m-3275 -16 c-41 -7 -86 -12 -100 -12
-33 1 107 26 145 26 17 0 -4 -6 -45 -14z"/>
<path d="M1856 2788 c-61 -41 -96 -102 -96 -167 1 -123 116 -225 232 -207 21
4 38 3 38 -2 0 -4 -14 -9 -32 -10 -46 -4 -48 -12 -2 -12 48 0 111 17 120 32 5
7 3 8 -6 3 -8 -5 -11 -4 -6 3 4 6 13 9 20 6 7 -3 19 3 27 12 12 16 12 17 -1 9
-8 -4 -12 -5 -8 0 4 4 0 14 -10 22 -15 13 -15 13 5 4 12 -6 24 -11 27 -11 10
0 33 54 40 90 7 42 -19 140 -37 140 -7 0 -19 13 -29 29 -29 51 -92 85 -167 89
-61 4 -70 2 -115 -30z m219 -12 c44 -34 72 -78 81 -126 8 -39 -10 -117 -32
-141 -8 -9 -12 -22 -9 -30 5 -13 -50 -59 -71 -59 -5 0 5 9 22 19 52 31 51 46
0 16 -164 -96 -355 70 -277 240 37 80 99 117 187 113 49 -3 69 -10 99 -32z
m108 -152 c0 -49 -28 -134 -45 -134 -4 0 1 19 13 42 17 32 20 54 17 100 -3 35
-1 55 5 49 5 -5 9 -31 10 -57z"/>
<path d="M1275 2796 c-42 -18 -102 -88 -114 -133 -14 -48 -14 -67 0 -114 35
-114 203 -201 306 -157 43 18 103 79 103 104 0 13 5 26 10 29 13 8 13 72 0 80
-6 3 -15 26 -21 49 -14 56 -62 114 -113 137 -48 22 -128 24 -171 5z m153 -11
c127 -54 162 -216 67 -310 -14 -15 -30 -23 -37 -19 -6 4 -8 3 -5 -3 10 -16
-39 -33 -93 -33 -59 0 -104 15 -94 32 5 7 3 8 -5 3 -16 -9 -63 34 -56 53 2 7
1 11 -4 8 -14 -9 -31 42 -31 91 0 137 134 229 258 178z m139 -227 c-3 -7 -5
-2 -5 12 0 14 2 19 5 13 2 -7 2 -19 0 -25z m-21 -57 c-9 -10 -16 -23 -16 -29
0 -7 -4 -12 -10 -12 -5 0 -10 -7 -10 -16 0 -8 -4 -13 -8 -10 -5 3 -20 -2 -33
-12 -26 -18 -35 -21 -94 -27 l-40 -4 44 9 c69 15 114 43 146 91 17 25 32 42
34 37 1 -5 -4 -17 -13 -27z"/>
<path d="M1571 2650 c0 -8 4 -22 9 -30 12 -18 12 -2 0 25 -6 13 -9 15 -9 5z"/>
<path d="M958 2480 c-9 -28 -12 -52 -8 -55 8 -5 34 94 27 101 -2 2 -10 -19
-19 -46z"/>
<path d="M2386 2097 c-22 -33 -185 -372 -256 -532 -140 -316 -370 -927 -370
-981 0 -60 123 -128 233 -128 l68 -1 70 185 c100 266 259 658 409 1010 71 168
130 313 130 323 0 30 -28 74 -62 100 -45 33 -91 47 -154 47 -45 0 -56 -4 -68
-23z m184 -14 c99 -52 102 -31 -60 -413 -151 -356 -363 -884 -427 -1062 l-38
-108 -41 0 c-22 0 -65 7 -95 16 -53 15 -139 62 -139 76 0 3 25 80 56 170 124
360 296 775 479 1154 l94 194 58 0 c45 0 72 -7 113 -27z"/>
<path d="M1333 1967 c-139 -121 -376 -356 -530 -526 -118 -130 -121 -135 -110
-162 38 -91 718 -769 770 -769 42 0 157 103 182 164 30 72 24 81 -196 304
-112 114 -224 228 -248 254 l-44 47 249 256 c245 253 249 258 247 297 -4 73
-74 162 -163 208 -22 11 -41 20 -44 20 -3 0 -54 -42 -113 -93z m150 67 c53
-28 93 -62 121 -105 55 -83 66 -65 -223 -354 -144 -143 -261 -264 -261 -270 0
-5 117 -127 261 -271 246 -246 261 -263 255 -290 -11 -47 -76 -124 -134 -157
l-52 -29 -72 58 c-165 134 -673 654 -673 689 0 33 469 515 655 673 47 40 86
72 88 72 2 0 17 -7 35 -16z"/>
<path d="M2916 2039 c-86 -46 -166 -159 -152 -216 5 -18 93 -114 259 -281
l252 -252 -258 -258 c-141 -141 -257 -263 -257 -270 0 -7 13 -41 29 -76 32
-72 90 -134 150 -161 l40 -18 73 59 c87 70 515 495 615 610 59 68 70 86 66
108 -7 34 -147 191 -367 412 -178 177 -384 364 -401 364 -5 -1 -27 -10 -49
-21z m168 -88 c128 -111 380 -362 523 -520 l112 -125 -26 -30 c-137 -165 -449
-479 -645 -649 -73 -63 -79 -66 -108 -56 -45 16 -125 93 -151 145 l-22 46 109
111 c60 62 180 184 266 272 l158 160 -136 135 c-74 74 -194 197 -265 272
l-130 137 15 35 c30 72 157 178 190 159 6 -4 56 -45 110 -92z"/>
<path d="M304 1845 c0 -99 2 -138 3 -87 2 51 2 132 0 180 -1 48 -3 6 -3 -93z"/>
<path d="M314 1495 c0 -88 2 -123 3 -77 2 46 2 118 0 160 -1 42 -3 5 -3 -83z"/>
<path d="M324 1240 c0 -52 1 -74 3 -47 2 26 2 68 0 95 -2 26 -3 4 -3 -48z"/>
</g>
</svg>
